<svg width="31" height="31" viewBox="0 0 31 31" fill="none" xmlns="http://www.w3.org/2000/svg">
<path d="M25.1875 0.96875H5.8125C3.1373 0.96875 0.96875 3.1373 0.96875 5.8125V25.1875C0.96875 27.8627 3.1373 30.0312 5.8125 30.0312H25.1875C27.8627 30.0312 30.0312 27.8627 30.0312 25.1875V5.8125C30.0312 3.1373 27.8627 0.96875 25.1875 0.96875ZM8.71875 12.5938H6.25328V14.7734H8.71875V16.2266H6.25328V19.8594H4.84375V11.1406H8.71875V12.5938ZM14.7613 19.8594H13.298L12.1011 16.2266H11.5562V19.8594H10.1719V11.1406H12.5938C13.9297 11.1406 15.0156 12.2813 15.0156 13.6836C15.0156 14.7478 14.3893 15.6618 13.5039 16.0401L14.7613 19.8594ZM20.3438 12.5938H17.8783V14.7734H20.3438V16.2266H17.8783V18.4062H20.3438V19.8594H16.4688V11.1406H20.3438V12.5938ZM26.1562 12.5938H23.6908V14.7734H26.1562V16.2266H23.6908V18.4062H26.1562V19.8594H22.2812V11.1406H26.1562V12.5938Z" fill="#1F53FF"/>
<path d="M15.5692 14.5312H14.5312V16.7109H15.5692C16.1418 16.7109 16.6073 16.2217 16.6073 15.6211C16.6073 15.0205 16.1418 14.5312 15.5692 14.5312Z" fill="#1F53FF"/>
</svg>
